<svg width="19" height="19" viewBox="0 0 19 19" fill="none" xmlns="http://www.w3.org/2000/svg">
<path d="M8.83185 1.35356C9.1312 0.432254 10.4346 0.432255 10.734 1.35357L12.2131 5.90574C12.3469 6.31776 12.7309 6.59672 13.1641 6.59672H17.9506C18.9193 6.59672 19.322 7.83634 18.5383 8.40574L14.666 11.2191C14.3155 11.4738 14.1689 11.9252 14.3028 12.3372L15.7818 16.8894C16.0812 17.8107 15.0267 18.5768 14.243 18.0074L10.3707 15.194C10.0202 14.9393 9.5456 14.9393 9.19512 15.194L5.3228 18.0074C4.53909 18.5768 3.48461 17.8107 3.78396 16.8894L5.26305 12.3372C5.39693 11.9252 5.25027 11.4738 4.89978 11.2191L1.02747 8.40574C0.243757 7.83634 0.646532 6.59672 1.61526 6.59672H6.4017C6.83492 6.59672 7.21888 6.31776 7.35275 5.90574L8.83185 1.35356Z" fill="#FFD700"/>
</svg>
